<?xml version="1.0" encoding="UTF-8"?>
<svg id="Capa_1" data-name="Capa 1" xmlns="http://www.w3.org/2000/svg" version="1.1" viewBox="0 0 419 372.5">
  <defs>
    <style>
      .cls-1 {
        fill: #cecece;
        stroke-width: 0px;
      }
    </style>
  </defs>
  <path class="cls-1" d="M418.9,185.9c0,13.1-10.9,23.4-23.3,23.4h-23.3l.5,116.5c0,2-.1,3.9-.4,5.9v11.7c0,16.1-13,29.1-29.1,29.1h-11.6c-.8,0-1.6,0-2.4,0-1,0-2,0-3.1,0h-41.1c-16.1,0-29.1-13-29.1-29.1v-64c0-12.9-10.4-23.3-23.3-23.3h-46.6c-12.9,0-23.3,10.4-23.3,23.3v64c0,16.1-13,29.1-29.1,29.1h-40.7c-1.1,0-2.2,0-3.3-.1-.9,0-1.8.1-2.6.1h-11.6c-16.1,0-29.1-13-29.1-29.1v-81.5c0-.6,0-1.4,0-2v-50.6h-23.4C10.2,209.2,0,199,0,185.9s2.2-12.4,7.3-17.5L193.8,5.8c5.1-5.1,10.9-5.8,16-5.8s10.9,1.5,15.3,5.1l185.8,163.3c5.8,5.1,8.7,10.9,8,17.5h0Z"/>
</svg>